<?xml version="1.0" encoding="iso-8859-1"?>
<!-- Generator: Adobe Illustrator 19.0.0, SVG Export Plug-In . SVG Version: 6.00 Build 0)  -->
<svg version="1.1" id="Layer_1" xmlns="http://www.w3.org/2000/svg" xmlns:xlink="http://www.w3.org/1999/xlink" x="0px" y="0px"
	 viewBox="0 0 512.107 512.107" style="enable-background:new 0 0 512.107 512.107;" xml:space="preserve">
<g>
	<g>
		<g>
			<path d="M467.733,138.72H44.267C19.84,138.72,0,158.56,0,182.987v146.24c0,24.32,19.84,44.16,44.267,44.16H467.84
				c24.427,0,44.16-19.84,44.267-44.267V182.987C512,158.56,492.16,138.72,467.733,138.72z M96,352.053H44.267
				c-12.053,0-21.973-9.387-22.827-21.333H96V352.053z M181.333,352.053h-64V330.72h64V352.053z M298.667,352.053h-96V330.72h96
				V352.053z M394.667,352.053H320V330.72h74.667V352.053z M467.733,352.053H416V330.72h74.56
				C489.707,342.667,479.787,352.053,467.733,352.053z M490.773,309.387H21.333v-126.4c0-12.693,10.24-22.933,22.933-22.933H467.84
				c12.693,0,22.933,10.24,22.933,22.933V309.387z"/>
			<path d="M448,202.72h-53.333c-5.867,0-10.667,4.8-10.667,10.667c0,5.867,4.8,10.667,10.667,10.667H448
				c5.867,0,10.667-4.8,10.667-10.667C458.667,207.52,453.867,202.72,448,202.72z"/>
		</g>
	</g>
</g>
<g>
</g>
<g>
</g>
<g>
</g>
<g>
</g>
<g>
</g>
<g>
</g>
<g>
</g>
<g>
</g>
<g>
</g>
<g>
</g>
<g>
</g>
<g>
</g>
<g>
</g>
<g>
</g>
<g>
</g>
</svg>
