<?xml version="1.0" encoding="iso-8859-1"?>
<!-- Generator: Adobe Illustrator 19.0.0, SVG Export Plug-In . SVG Version: 6.00 Build 0)  -->
<svg version="1.1" id="Layer_1" xmlns="http://www.w3.org/2000/svg" xmlns:xlink="http://www.w3.org/1999/xlink" x="0px" y="0px"
	 viewBox="0 0 512 512" style="enable-background:new 0 0 512 512;" xml:space="preserve">
<g>
	<g>
		<path d="M408.49,193.586c-38.366-34.559-88.566-54.508-142.291-56.752V10.199C266.199,4.566,261.633,0,256,0
			c-5.633,0-10.199,4.566-10.199,10.199v126.634c-53.725,2.245-103.925,22.193-142.291,56.752
			c-41.083,37.008-63.708,86.297-63.708,138.79c0,5.633,4.566,10.199,10.199,10.199h118.284
			c5.513,39.678,42.747,70.459,87.715,70.459s82.202-30.781,87.715-70.459h118.284c5.633,0,10.199-4.566,10.199-10.199
			C472.199,279.883,449.573,230.594,408.49,193.586z M256,392.636c-33.583,0-61.56-21.674-67.047-50.061h134.093
			C317.56,370.961,289.583,392.636,256,392.636z M60.527,322.177c5.917-91.967,91.33-165.163,195.473-165.163
			s189.556,73.196,195.473,165.163H60.527z"/>
	</g>
</g>
<g>
	<g>
		<path d="M254.924,429.21c-5.633,0-10.199,4.566-10.199,10.199v62.392c0,5.633,4.566,10.199,10.199,10.199
			c5.633,0,10.199-4.566,10.199-10.199v-62.392C265.123,433.776,260.557,429.21,254.924,429.21z"/>
	</g>
</g>
<g>
	<g>
		<path d="M381.687,445.438l-2.481-2.482c-3.983-3.983-10.441-3.983-14.425,0c-3.983,3.983-3.983,10.441,0,14.425l2.482,2.482
			c1.992,1.992,4.602,2.987,7.212,2.987s5.221-0.995,7.212-2.987C385.67,455.88,385.67,449.422,381.687,445.438z"/>
	</g>
</g>
<g>
	<g>
		<path d="M356.8,420.55l-19.229-19.23c-3.983-3.983-10.441-3.983-14.425,0c-3.983,3.983-3.983,10.441,0,14.425l19.23,19.23
			c1.992,1.992,4.602,2.987,7.212,2.987s5.221-0.995,7.212-2.987C360.783,430.992,360.783,424.534,356.8,420.55z"/>
	</g>
</g>
<g>
	<g>
		<path d="M185.441,404.363c-3.982-3.983-10.44-3.983-14.424,0L126.9,448.48c-3.983,3.983-3.983,10.441,0,14.425
			c1.992,1.992,4.602,2.987,7.212,2.987s5.221-0.995,7.212-2.987l44.118-44.118C189.424,414.805,189.424,408.347,185.441,404.363z"
			/>
	</g>
</g>
<g>
</g>
<g>
</g>
<g>
</g>
<g>
</g>
<g>
</g>
<g>
</g>
<g>
</g>
<g>
</g>
<g>
</g>
<g>
</g>
<g>
</g>
<g>
</g>
<g>
</g>
<g>
</g>
<g>
</g>
</svg>
