<?xml version="1.0" encoding="iso-8859-1"?>
<!-- Generator: Adobe Illustrator 18.0.0, SVG Export Plug-In . SVG Version: 6.00 Build 0)  -->
<!DOCTYPE svg PUBLIC "-//W3C//DTD SVG 1.1//EN" "http://www.w3.org/Graphics/SVG/1.1/DTD/svg11.dtd">
<svg version="1.1" id="Capa_1" xmlns="http://www.w3.org/2000/svg" xmlns:xlink="http://www.w3.org/1999/xlink" x="0px" y="0px"
	 viewBox="0 0 298.177 298.177" style="enable-background:new 0 0 298.177 298.177;" xml:space="preserve">
<path id="XMLID_25_" d="M298.177,149.089c0-5.571-4.517-10.087-10.087-10.087h-14.449l13.712-13.712
	c3.938-3.94,3.938-10.322,0-14.264c-3.941-3.939-10.324-3.939-14.264,0l-27.977,27.976h-71.668l50.674-50.675h39.564
	c5.569,0,10.083-4.516,10.083-10.087c0-5.57-4.514-10.087-10.083-10.087h-19.391l10.219-10.219c3.938-3.94,3.938-10.324,0-14.265
	c-3.941-3.938-10.323-3.938-14.263,0l-10.22,10.22V34.501c0-5.57-4.517-10.087-10.087-10.087c-5.57,0-10.087,4.517-10.087,10.087
	v39.565l-50.679,50.676v-71.68l27.973-27.976c3.942-3.938,3.942-10.321,0-14.262c-3.938-3.94-10.321-3.94-14.262,0l-13.711,13.711
	v-14.45c0-5.569-4.519-10.086-10.087-10.086c-5.57,0-10.088,4.517-10.088,10.086v14.45l-13.712-13.711
	c-3.938-3.94-10.321-3.94-14.262,0c-3.941,3.941-3.941,10.323,0,14.262l27.974,27.976v71.677L88.328,74.067V34.501
	c0-5.57-4.518-10.087-10.088-10.087c-5.571,0-10.086,4.517-10.086,10.087V53.89L57.93,43.667c-3.941-3.939-10.323-3.939-14.263,0
	c-3.94,3.938-3.94,10.322,0,14.264l10.224,10.224H34.5c-5.57,0-10.086,4.517-10.086,10.087c0,5.571,4.516,10.087,10.086,10.087
	h39.565l50.673,50.675H53.074l-27.976-27.976c-3.94-3.939-10.321-3.939-14.262,0c-3.94,3.941-3.94,10.324,0,14.264l13.712,13.712
	H10.086C4.517,139.003,0,143.518,0,149.089c0,5.569,4.517,10.087,10.086,10.087h14.462l-13.712,13.711
	c-3.94,3.94-3.94,10.322,0,14.264c1.97,1.969,4.551,2.955,7.132,2.955c2.579,0,5.159-0.986,7.13-2.955l27.976-27.975h71.669
	l-50.678,50.679H34.5c-5.57,0-10.086,4.516-10.086,10.088c0,5.568,4.516,10.085,10.086,10.085h19.391l-10.224,10.224
	c-3.94,3.94-3.94,10.324,0,14.265c1.97,1.969,4.55,2.955,7.131,2.955c2.58,0,5.162-0.986,7.132-2.955l10.225-10.225v19.391
	c0,5.57,4.515,10.085,10.086,10.085c5.57,0,10.088-4.515,10.088-10.085v-39.564l50.673-50.675v71.66l-27.974,27.976
	c-3.941,3.939-3.941,10.323,0,14.263c3.94,3.941,10.323,3.941,14.262,0l13.712-13.711v14.46c0,5.571,4.518,10.086,10.088,10.086
	c5.568,0,10.087-4.515,10.087-10.086v-14.46l13.711,13.711c1.97,1.972,4.55,2.956,7.131,2.956c2.581,0,5.163-0.984,7.131-2.956
	c3.942-3.939,3.942-10.323,0-14.263l-27.973-27.976v-71.664l50.679,50.679v39.564c0,5.57,4.517,10.085,10.087,10.085
	c5.57,0,10.087-4.515,10.087-10.085v-19.391l10.22,10.219c1.97,1.971,4.55,2.956,7.131,2.956c2.58,0,5.161-0.985,7.132-2.956
	c3.938-3.939,3.938-10.323,0-14.263l-10.219-10.22h19.391c5.569,0,10.083-4.517,10.083-10.085c0-5.572-4.514-10.088-10.083-10.088
	h-39.564l-50.68-50.679h71.674l27.977,27.975c1.97,1.969,4.55,2.955,7.131,2.955c2.58,0,5.162-0.986,7.133-2.955
	c3.938-3.941,3.938-10.323,0-14.264l-13.712-13.711h14.449C293.66,159.176,298.177,154.659,298.177,149.089z"/>
<g>
</g>
<g>
</g>
<g>
</g>
<g>
</g>
<g>
</g>
<g>
</g>
<g>
</g>
<g>
</g>
<g>
</g>
<g>
</g>
<g>
</g>
<g>
</g>
<g>
</g>
<g>
</g>
<g>
</g>
</svg>
