<?xml version="1.0" encoding="iso-8859-1"?>
<!-- Generator: Adobe Illustrator 19.0.0, SVG Export Plug-In . SVG Version: 6.00 Build 0)  -->
<svg version="1.1" id="Layer_1" xmlns="http://www.w3.org/2000/svg" xmlns:xlink="http://www.w3.org/1999/xlink" x="0px" y="0px"
	 viewBox="0 0 299.435 299.435" style="enable-background:new 0 0 299.435 299.435;" xml:space="preserve">
<g>
	<g>
		<g>
			<path d="M227.228,0H72.208c-13.785,0-25,11.215-25,25v226.948c0,12.073,8.603,22.174,20,24.497v17.99c0,2.762,2.238,5,5,5h34
				c2.762,0,5-2.238,5-5v-17.487h77.02v17.487c0,2.762,2.238,5,5,5h34c2.762,0,5-2.238,5-5v-17.99c11.397-2.323,20-12.424,20-24.497
				V25C252.228,11.215,241.012,0,227.228,0z M101.208,289.435h-24v-12.487h24V289.435z M222.228,289.435h-24v-12.487h24V289.435z
				 M242.228,251.948c0,8.271-6.729,15-15,15c-21.142,0-134.138,0-155.02,0c-8.271,0-15-6.729-15-15V25c0-8.271,6.729-15,15-15
				h155.02c8.271,0,15,6.729,15,15V251.948z"/>
			<path d="M149.718,123.644c-33.582,0-60.903,27.321-60.903,60.903c0,33.582,27.321,60.903,60.903,60.903
				c33.582,0,60.903-27.321,60.903-60.903C210.621,150.965,183.299,123.644,149.718,123.644z M149.718,235.45
				c-28.068,0-50.903-22.835-50.903-50.903s22.835-50.903,50.903-50.903s50.903,22.835,50.903,50.903S177.786,235.45,149.718,235.45
				z"/>
			<path d="M149.718,150.281c-18.894,0-34.266,15.371-34.266,34.266s15.371,34.266,34.266,34.266s34.266-15.371,34.266-34.266
				C183.983,165.652,168.611,150.281,149.718,150.281z M149.718,208.813c-13.38,0-24.266-10.886-24.266-24.266
				s10.886-24.266,24.266-24.266s24.266,10.886,24.266,24.266S163.098,208.813,149.718,208.813z"/>
			<path d="M149.718,95.299c17.59,0,31.9-14.311,31.9-31.901c0-17.59-14.311-31.9-31.9-31.9s-31.9,14.311-31.9,31.9
				C117.817,80.988,132.127,95.299,149.718,95.299z M149.718,41.497c12.076,0,21.9,9.824,21.9,21.9
				c0,12.076-9.824,21.901-21.9,21.901s-21.9-9.825-21.9-21.901C127.817,51.321,137.642,41.497,149.718,41.497z"/>
		</g>
	</g>
</g>
<g>
</g>
<g>
</g>
<g>
</g>
<g>
</g>
<g>
</g>
<g>
</g>
<g>
</g>
<g>
</g>
<g>
</g>
<g>
</g>
<g>
</g>
<g>
</g>
<g>
</g>
<g>
</g>
<g>
</g>
</svg>
